<svg xmlns="http://www.w3.org/2000/svg" width="179.937" height="185.534"><path d="M85.736 201.068c-37.723-7.586-65.445-37.806-69.31-75.555-2.312-22.576 4.024-44.28 18.207-62.372 7.141-9.11 8.99-10.852 18.238-17.184 14.487-9.918 31.53-15.453 47.515-15.43 11.194.015 25.272 2.74 34.01 6.58 11.179 4.915 11.072 4.432 2.43 10.936l-7.591 5.713-4.25-1.189c-16.563-4.635-27.005-5.185-39.205-2.065-14.317 3.662-26.547 11.166-35.871 22.011-6.253 7.273-9.302 12.734-12.84 23-2.554 7.413-2.936 9.971-2.984 20-.064 13.424 1.57 20.908 6.857 31.414 3.555 7.063 10.448 16.737 13.954 19.586 7.008 5.693 10.588 8.118 16.011 10.846 33.239 16.716 74.13 3.067 91.12-30.417 5.097-10.042 6.639-17.257 6.611-30.929-.023-11.37-.347-13.897-2.583-20.156l-2.557-7.156 2.619-4.345c4.287-7.111 7.576-11.817 8.27-11.83 2.327-.045 9.622 17.793 11.437 27.965 5.412 30.331-5.494 61.117-28.632 80.82-7.82 6.66-19.94 13.679-28.956 16.77-12.426 4.258-30.026 5.496-42.5 2.987zm14.554-38.58c-2.614-12.87-11.836-28.085-23.323-38.48-3.34-3.022-5.755-5.495-5.368-5.495.387 0 3.046 1.187 5.909 2.638 7.273 3.686 16.84 13.704 20.528 21.497 3.368 7.118 5.56 18.871 4.358 23.365-.723 2.704-.9 2.409-2.104-3.524zm7.636-19.27c-3.63-11.473-12.431-22.706-23.94-30.56-5.453-3.72-5.862-4.444-2-3.536 9.355 2.199 19.95 10.953 24.791 20.484 2.3 4.527 4.76 17.603 3.462 18.405-.366.227-1.407-1.93-2.313-4.793zm9.083-11.026c-.265-2.355-1.722-7.043-3.237-10.419-4.244-9.456-11.586-15.347-22.622-18.15-8.41-2.135-7.638-3.676 1.335-2.661 15.49 1.752 25.544 12.048 26.532 27.166.51 7.808-1.197 11.262-2.008 4.064zm9.17.271c-.032-.247-.253-4.05-.492-8.45-.524-9.667-4.476-18.725-10.246-23.485-3.815-3.146-12.772-7.015-16.243-7.015-1.079 0-1.946-.337-1.927-.75.02-.412 4.155-3.9 9.19-7.75 9.628-7.36 23.884-18.509 27.28-21.333 1.102-.917 7.627-5.918 14.5-11.115 6.872-5.196 12.72-9.718 12.995-10.048.275-.33 2.075-1.682 4-3.004 1.925-1.322 3.725-2.668 4-2.991 1.564-1.839 26.256-20.086 26.649-19.693.26.26-3.433 6.932-8.207 14.828-4.773 7.896-9.465 15.706-10.427 17.356-.961 1.65-4.058 6.746-6.882 11.324-2.823 4.577-5.133 8.428-5.133 8.556 0 .129-3.511 6.058-7.803 13.177a9701.819 9701.819 0 0 0-8.997 14.943c-19.398 32.492-22.088 36.776-22.257 35.45z" style="fill:#db0707;fill-opacity:1" transform="translate(-15.96 -16.823)"/><path d="M93.094 201.974c-4.55-.534-7.018-.973-11.204-1.993-29.16-7.105-52.46-28.606-61.555-56.798-4.679-14.503-5.441-30.297-2.179-45.146 3.372-15.347 12.534-31.892 24.005-43.35 5.742-5.734 16.213-12.663 24.999-16.54 10.973-4.843 19.866-6.923 30.924-7.232 14.095-.394 26.828 2.089 39.204 7.644 4.136 1.856 5.566 2.827 5.566 3.78 0 .79-1.499 2.103-7.898 6.919-4.355 3.278-5.918 4.284-6.426 4.137-13.593-3.944-24.051-5.504-32.165-4.8-11.313.983-23.03 5.105-32.515 11.44-8.764 5.853-16.571 14.153-21.488 22.843-3.07 5.426-6.793 15.602-7.734 21.14-.639 3.758-.752 18.128-.179 22.688 1.402 11.162 6.094 21.925 14.403 33.036 3.425 4.58 4.42 5.631 8.158 8.624C67.798 177 77.89 181.654 90.445 183.783c5.363.909 14.534.981 20.114.158 20.163-2.974 37.734-14.43 48.61-31.696 4.026-6.39 7.46-14.856 8.552-21.09.924-5.27 1.318-14.84.904-21.963-.41-7.062-.854-9.149-3.48-16.385l-1.478-4.076 2.824-4.656c3.321-5.477 6.42-10.086 7.342-10.92.63-.571.682-.571 1.307-.005 1.644 1.487 6.21 11.88 8.413 19.15 2.259 7.45 3.065 12.4 3.35 20.566.639 18.323-4.318 35.821-14.424 50.913-6.572 9.815-14.079 17.231-24.023 23.733-12.7 8.304-22.139 11.984-35.59 13.877-3.282.462-17.29.876-19.772.585z" style="opacity:.974;fill:#0256a1;fill-opacity:1;stroke-width:.329536" transform="translate(-15.96 -16.823)"/><path d="M93.731 201.98c-1.587-.112-5.45-.672-7.692-1.117-8.23-1.632-16.221-4.404-23.418-8.124-18.82-9.727-33.265-25.8-40.758-45.35-3.252-8.487-5.112-17.528-5.57-27.077-.365-7.582.421-16.07 2.166-23.4l.284-1.195H36.858l-.313.925c-1.219 3.604-1.987 6.944-2.195 9.545-.298 3.716-.362 15.72-.102 18.863.349 4.21 1.505 9.468 3.025 13.752 2.607 7.347 6.382 14.11 12.127 21.72 2.615 3.463 4.047 4.99 6.74 7.187 5.162 4.212 9.863 7.315 14.937 9.858 4.694 2.352 8.925 3.907 13.993 5.143 5.323 1.299 8.676 1.706 14.754 1.792 6.758.096 10.762-.3 16.517-1.632 3.046-.706 6.903-1.914 9.838-3.082 13.732-5.467 25.34-15.19 33.185-27.796 4.237-6.81 7.683-15.675 8.594-22.113.97-6.86 1.132-17.842.368-25.046-.285-2.682-.819-5.163-1.696-7.875l-.401-1.241h18.276l.371 1.512c.954 3.888 1.457 7.214 1.825 12.072.155 2.045.213 9.164.093 11.299-.977 17.32-6.655 32.981-17.005 46.902-5.901 7.937-12.4 14.03-21.092 19.78-11.73 7.758-21.01 11.607-32.734 13.578-3.456.581-4.18.657-8.287.862-5.005.25-12.16.382-13.945.257z" style="opacity:.974;fill:#0256a1;fill-opacity:1;stroke-width:.0902564" transform="translate(-15.96 -16.823)"/><path d="M66.54 175.053c-2.769-1.667-5.383-3.466-8.171-5.62a94.193 94.193 0 0 1-.91-.712c-.005-.005.008-.006.088-.006h.094l.09.07a122.647 122.647 0 0 0 3.718 2.827 65.004 65.004 0 0 0 5.393 3.552l.028.017h-.118l-.212-.128z" style="opacity:.974;fill:#0256a1;fill-opacity:1;stroke-width:.00437204" transform="translate(-15.96 -16.823)"/><path d="M67.592 195.378a87.216 87.216 0 0 1-15.701-8.863l-.126-.09v-.269l.025.02a86.554 86.554 0 0 0 15.938 9.044l.072.031v.106c0 .08-.002.105-.009.105a4.4 4.4 0 0 1-.2-.084z" style="opacity:.974;fill:#0256a1;fill-opacity:1;stroke-width:.0067092" transform="translate(-15.96 -16.823)"/><path d="M51.338 186.112a86.22 86.22 0 0 1-8.748-7.25 144.888 144.888 0 0 1-3.134-3.126 85.197 85.197 0 0 1-7.72-9.37c-.536-.753-1.582-2.28-1.582-2.31 0-.007.054-.011.12-.011h.121l.26.387a85.753 85.753 0 0 0 8.095 10.234c1.019 1.103 3.05 3.16 4.06 4.108 2.828 2.66 5.754 5.084 8.657 7.173l.29.21.001.128c0 .071-.001.129-.004.128-.002 0-.19-.136-.416-.3z" style="opacity:.974;fill:#0256a1;fill-opacity:1;stroke-width:.0191028" transform="translate(-15.96 -16.823)"/><path d="M98.484 202.335c-4.51-.081-8.796-.5-12.44-1.214a91.467 91.467 0 0 1-9.345-2.365c-.477-.148-.546-.17-1.444-.464a87.285 87.285 0 0 1-7.416-2.811c-.043-.018-.043-.02-.033-.11a.541.541 0 0 1 .016-.098c.003-.003.188.072.41.167a87.44 87.44 0 0 0 13.15 4.421c4.063 1.016 6.755 1.516 10.89 2.02 1.147.14 1.279.15 2.403.18.668.018 3.873.01 4.765-.012l.411-.01v.312l-.365-.003c-.2-.001-.651-.008-1.002-.014z" style="opacity:.974;fill:#0256a1;fill-opacity:1;stroke-width:.0153581" transform="translate(-15.96 -16.823)"/><path d="M99.86 202.196v-.131l.31-.019c.172-.01 1.001-.035 1.844-.055 3.915-.092 8.185-.306 10.127-.507 1.024-.105 3.212-.443 5.02-.775 9.284-1.7 16.824-4.533 25.45-9.558a133.188 133.188 0 0 0 7.767-4.91l.446-.307v.113c0 .11-.023.128-.917.736-7.322 4.976-15.704 9.301-22.209 11.46-5.199 1.726-11.366 2.972-17.874 3.611-3.063.301-6.284.473-8.879.474H99.86z" style="opacity:.974;fill:#0256a1;fill-opacity:1;stroke-width:.0336624" transform="translate(-15.96 -16.823)"/><path d="M150.836 186.029c.002-.107.03-.132.686-.593.842-.592 2.563-1.876 3.409-2.542 5.645-4.451 10.315-9.235 14.66-15.02 4.178-5.561 7.603-11.419 10.316-17.637.284-.653.318-.715.399-.724.048-.006.087-.001.087.01 0 .036-.452 1.082-.846 1.955a86.107 86.107 0 0 1-7.93 13.953c-4.685 6.686-10.488 12.842-16.683 17.699-1.073.84-3.47 2.606-4.009 2.952l-.091.059z" style="opacity:.974;fill:#0256a1;fill-opacity:1;stroke-width:.0331758" transform="translate(-15.96 -16.823)"/><path d="M183.082 141.685a83.387 83.387 0 0 0 1.576-5.759c0-.001.043-.002.096-.002.07 0 .096.001.096.004a85.498 85.498 0 0 1-1.569 5.743l-.01.03h-.194z" style="opacity:.974;fill:#0256a1;fill-opacity:1;stroke-width:.00390625" transform="translate(-15.96 -16.823)"/><path d="M184.855 135.147c.995-4.365 1.671-9.134 1.958-13.808.39-6.352.03-14.097-.906-19.495-.596-3.437-1.602-7.364-2.915-11.372-.196-.598-.348-1.095-.338-1.106.077-.077.188.182.531 1.243 1.395 4.315 2.24 7.597 2.767 10.76.575 3.446.905 6.49 1.122 10.358.077 1.374.077 6.963 0 8.323-.302 5.34-.886 9.72-1.935 14.511-.314 1.437-.288 1.344-.379 1.344-.07 0-.06-.08.095-.758zM180.25 149.454l.411-.996a88.831 88.831 0 0 0 1.907-5.154c.354-1.054.546-1.564.588-1.564.035 0 .063.021.063.047 0 .083-.883 2.704-1.265 3.753-.204.56-.634 1.68-.956 2.489-.496 1.248-.599 1.472-.676 1.472-.05 0-.082-.021-.071-.047z" style="opacity:.974;fill:#0256a1;fill-opacity:1;stroke-width:.0452337" transform="translate(-15.96 -16.823)"/><path d="M167.213 99.313c-.23-.836-.85-2.647-2.23-6.516-.795-2.227-1.437-4.079-1.427-4.116.022-.082 3.035-5.08 4.119-6.83 3.373-5.453 5.977-9.082 6.666-9.293.153-.047.476.118.765.39 1.705 1.605 4.754 8.054 7.407 15.67.14.4.254.739.254.753 0 .014-.036.016-.08.004-.054-.014-.134-.18-.254-.527-.62-1.787-1.87-4.994-2.801-7.183-1.353-3.182-2.909-6.33-3.754-7.595-.536-.802-1.103-1.357-1.389-1.357-.485 0-1.643 1.433-3.82 4.727-1.807 2.734-2.998 4.645-6.369 10.215l-.652 1.077.98 2.7c1.418 3.905 2.024 5.69 2.492 7.335.124.434.219.821.211.859-.007.038-.06-.103-.118-.313z" style="opacity:.974;fill:#0256a1;fill-opacity:1;stroke-width:.0452337" transform="translate(-15.96 -16.823)"/><path d="M182.6 89.21a44.297 44.297 0 0 1-.47-1.253c-1.784-4.932-4.186-10.39-5.797-13.177-.74-1.28-1.446-2.067-1.857-2.067-.495 0-1.551 1.304-3.809 4.705a178.456 178.456 0 0 0-3.378 5.292c-1.28 2.08-3.619 5.94-3.659 6.039-.035.087-.037.087-.04-.008-.002-.093 2.064-3.565 3.82-6.416 3.248-5.277 5.918-9.08 6.768-9.644.21-.139.36-.122.644.073 1.419.976 4.135 6.321 6.702 13.19.658 1.76 1.204 3.33 1.188 3.42-.008.048-.053-.014-.113-.155z" style="opacity:.974;fill:#0256a1;fill-opacity:1;stroke-width:.0452337" transform="translate(-15.96 -16.823)"/><path d="M182.616 89.257c-.045-.105-.17-.436-.278-.735-2.118-5.897-5.024-12.379-6.54-14.587-.508-.74-1.027-1.222-1.315-1.222-.484 0-1.5 1.243-3.649 4.464-1.74 2.608-2.876 4.416-5.768 9.183a200.575 200.575 0 0 0-1.387 2.307c-.07.131-.091.148-.091.074 0-.096 1.975-3.417 3.711-6.241 2.962-4.816 5.296-8.22 6.487-9.463.318-.332.495-.46.64-.46.282 0 .91.57 1.436 1.304.974 1.361 2.487 4.316 3.872 7.562 1.219 2.858 3.138 8.01 2.982 8.006a.835.835 0 0 1-.1-.192z" style="opacity:.974;fill:#0256a1;fill-opacity:1;stroke-width:.0452337" transform="translate(-15.96 -16.823)"/><path d="M167.007 133.94c.004-.012.072-.306.109-.465a52.773 52.773 0 0 0 .916-5.279l.003-.026h.104l-.002.015-.024.202a49.707 49.707 0 0 1-.38 2.691 36.169 36.169 0 0 1-.61 2.835l-.01.034h-.053c-.05 0-.054 0-.052-.007zM165.78 138.213a48.789 48.789 0 0 0 1.224-4.259c.002-.006.008-.007.055-.007.038 0 .052.001.052.005 0 .018-.17.659-.274 1.03a57.711 57.711 0 0 1-1.043 3.332l-.024.071h-.049z" style="opacity:.974;fill:#0256a1;fill-opacity:1;stroke-width:.00390625" transform="translate(-15.96 -16.823)"/><path d="M157.682 154.347c.01-.017.184-.279.385-.582a68.518 68.518 0 0 0 3.598-6.104c.275-.525 1.062-2.104 1.337-2.683 1.089-2.288 1.955-4.373 2.638-6.346.052-.15.09-.243.102-.243.01 0 .017.002.017.006 0 .023-.34.966-.537 1.492-1.49 3.973-3.378 7.911-5.422 11.318a62.576 62.576 0 0 1-1.652 2.603l-.38.57h-.053c-.052 0-.053-.001-.033-.03z" style="opacity:.974;fill:#0256a1;fill-opacity:1;stroke-width:.0133124" transform="translate(-15.96 -16.823)"/><path d="M182.455 88.446a125.939 125.939 0 0 0-1.508-4.08 115.648 115.648 0 0 0-.66-1.658c0-.002.005-.003.01-.002.01.001.014.01.065.134a119.898 119.898 0 0 1 2.124 5.64c0 .001-.004.002-.009.002-.008 0-.01-.004-.022-.036zM184.86 96.282a90.267 90.267 0 0 0-1.006-3.554c-.202-.66-.558-1.791-.692-2.196l-.007-.023.01.001c.01.002.012.007.055.136a98.954 98.954 0 0 1 1.659 5.619l.006.022h-.012c-.006 0-.012-.002-.013-.005zM184.684 96.284a99.362 99.362 0 0 0-1.643-5.606c-.044-.134-.053-.167-.048-.168a.01.01 0 0 1 .009.002 94.291 94.291 0 0 1 1.692 5.772c0 .004-.008.004-.01 0z" style="opacity:.974;fill:#0256a1;fill-opacity:1;stroke-width:.00390625" transform="translate(-15.96 -16.823)"/><path d="M182.903 90.258a106.348 106.348 0 0 0-1.292-3.626l.003-.001c.004 0-.002-.015.134.346.258.683.465 1.251.679 1.859.078.222.117.32.163.414a.416.416 0 0 0 .06.096c.007.009.008.012.004.016-.008.01.023.121.107.395.056.18.226.715.239.747 0 .003-.001.006-.005.007-.006.001-.018-.03-.093-.253zM183.075 90.267c-.173-.519-.267-.765-.329-.857-.016-.024-.016-.025-.008-.025.017 0 .03-.007.03-.017 0-.013-.262-.785-.297-.875-.004-.01-.004-.01.007-.01.01 0 .011.002.019.024l.077.223a121.605 121.605 0 0 1 .599 1.775c0 .003-.001.005-.008.005-.01 0-.013-.01-.09-.243z" style="opacity:.974;fill:#0256a1;fill-opacity:1;stroke-width:.00390625" transform="translate(-15.96 -16.823)"/><path d="M22.509 149.685a85.388 85.388 0 0 1-4.84-15.967l-.16-.8c-.005-.019.006-.02.095-.02h.1l.103.522a85.129 85.129 0 0 0 5.049 16.577.891.891 0 0 1-.108.003h-.109Z" style="opacity:.974;fill:#0256a1;fill-opacity:1;stroke-width:.0115638" transform="translate(-15.96 -16.823)"/><path d="M29.565 163.138A85.44 85.44 0 0 1 23.04 150.9c-.421-.977-.395-.893-.277-.878.089.01.133.092.456.84a84.907 84.907 0 0 0 6.73 12.516l.393.606c.02.034-.004.048-.086.048-.108 0-.15-.055-.69-.895z" style="opacity:.974;fill:#0256a1;fill-opacity:1;stroke-width:.03851" transform="translate(-15.96 -16.823)"/><path d="M47.817 158.327c-.102-.14-.456-.636-.617-.865-2.349-3.328-4.31-6.523-6.042-9.841a88.133 88.133 0 0 1-.676-1.334c0-.003.03-.005.066-.005h.067l.24.479c1.042 2.075 2.243 4.182 3.753 6.58a108.66 108.66 0 0 0 3.189 4.769l.068.095v.09a.58.58 0 0 1-.004.088.481.481 0 0 1-.044-.056z" style="opacity:.974;fill:#0256a1;fill-opacity:1;stroke-width:.00829469" transform="translate(-15.96 -16.823)"/><path d="m17.487 100.372.153-.763a84.858 84.858 0 0 1 8.14-22.822l.138-.263h.16c.146 0 .157.003.144.029l-.169.319c-.422.8-1.237 2.43-1.66 3.32-2.826 5.954-4.88 11.793-6.18 17.558-.178.792-.542 2.566-.542 2.642 0 .03-.01.033-.097.033h-.096z" style="opacity:.974;fill:#0256a1;fill-opacity:1;stroke-width:.0161597" transform="translate(-15.96 -16.823)"/><path d="M16.82 128.72c0-.008-.035-.285-.08-.614-.385-2.89-.618-5.747-.734-9.033-.033-.938-.034-4.28 0-5.212.165-4.659.586-8.615 1.366-12.861l.105-.573h.18l-.011.066-.113.623a86.278 86.278 0 0 0-1.3 11.762c-.1 2.312-.095 5.103.01 7.503a88.51 88.51 0 0 0 .72 7.988c.054.393.058.366-.051.366-.05 0-.091-.007-.091-.015z" style="opacity:.974;fill:#0256a1;fill-opacity:1;stroke-width:.020278" transform="translate(-15.96 -16.823)"/><path d="m43.47 53.232.002-.189.305-.27c2.082-1.842 4.173-3.417 8.353-6.292a99.235 99.235 0 0 1 3.903-2.58c12.475-7.811 26.657-12.48 40.239-13.247.514-.03 1.614-.081 1.717-.081.02 0 .029.048.029.167v.168l-.508.016c-1.982.06-4.247.218-6.294.438-7.737.83-14.897 2.807-23.223 6.412a82.158 82.158 0 0 0-7.487 3.692c-6.204 3.44-12.427 7.78-16.678 11.63l-.36.326z" style="opacity:.974;fill:#0256a1;fill-opacity:1;stroke-width:.022824" transform="translate(-15.96 -16.823)"/><path d="M25.997 76.39a91.076 91.076 0 0 1 8.538-13.1c4.045-5.183 6.227-7.702 8.59-9.919l.34-.319-.001.19-.001.19-.328.302c-.644.595-2.268 2.246-3.177 3.232-4.483 4.856-8.625 10.547-12.133 16.67-.493.862-1.048 1.862-1.405 2.534l-.189.355h-.302zM38.772 90.635c0-.012.045-.131.1-.265l.375-.908c1.281-3.102 2.467-5.514 3.82-7.771 4.89-8.15 12.153-15.768 20.367-21.36 3.622-2.466 7.742-4.69 11.969-6.46.693-.291 1.472-.607 1.496-.607.007 0 .012.02.012.045 0 .034-.088.08-.354.185-.8.316-2.254.94-3.178 1.363-6.403 2.934-12.218 6.749-17.38 11.403a69.852 69.852 0 0 0-6.116 6.268c-5.061 5.889-7.951 10.545-10.653 17.161-.163.397-.316.778-.342.845-.025.067-.062.122-.081.122-.02 0-.035-.01-.035-.021z" style="opacity:.974;fill:#0256a1;fill-opacity:1;stroke-width:.0257876" transform="translate(-15.96 -16.823)"/><path d="M127.938 53.38c-6.542-1.845-9.687-2.633-13.464-3.372-.49-.096-.867-.179-.838-.185.106-.02 2.731.506 4.576.917 2.81.625 6.341 1.53 9.43 2.415.506.145.966.264 1.02.264.613 0 2.493-1.264 7.323-4.92 5.053-3.825 6.625-5.191 6.844-5.945.299-1.027-1.258-2.117-6.035-4.229-7.663-3.387-15.563-5.617-23.677-6.682-3.4-.446-6.493-.676-10.261-.763-1.381-.032-4.296-.02-4.668.02l-.157.017v-.323l.273-.021c.423-.033 3.371-.026 4.42.011 9.756.343 20.84 2.427 28.948 5.442 1.378.513 2.215.866 5.684 2.4 3.851 1.701 5.158 2.472 5.57 3.284.087.173.097.224.097.506 0 .284-.01.335-.104.535-.16.336-.348.593-.717.977-.667.694-1.442 1.33-3.669 3.01a3401.95 3401.95 0 0 1-9.29 6.983c-.018.01-.606-.145-1.305-.342z" style="opacity:.974;fill:#0256a1;fill-opacity:1;stroke-width:.033046" transform="translate(-15.96 -16.823)"/><path d="M76.889 53.345c.026-.021.032-.034.026-.061-.009-.039-.054-.02.775-.335 5.597-2.134 11.47-3.568 17.215-4.203a47.094 47.094 0 0 1 4.147-.293c.589-.016 2.54-.008 3.064.013.616.025.933.04 1.043.047l.11.008v.076l-.217-.009-.533-.021a93.149 93.149 0 0 0-3.24-.013c-2.724.07-5.258.314-7.967.766-4.513.752-9.616 2.17-14.08 3.914a8.704 8.704 0 0 1-.365.137c-.007 0 .003-.012.022-.026z" style="opacity:.974;fill:#0256a1;fill-opacity:1;stroke-width:.0126069" transform="translate(-15.96 -16.823)"/><path d="M128.643 53.412a.08.08 0 0 1 .028-.004.8.8 0 0 0 .136-.02c.286-.066.741-.298 1.384-.705a1.08 1.08 0 0 1 .09-.055c.002.001-.037.028-.087.059-.712.452-1.172.682-1.449.723-.044.007-.112.008-.103.002z" style="opacity:.974;fill:#0256a1;fill-opacity:1;stroke-width:.00390625" transform="translate(-15.96 -16.823)"/><path d="m127.584 53.292-1.66-.464c-.004-.001-.008-.005-.008-.008 0-.004.002-.005.005-.004l.071.02 1.766.494c.84.236 1.345.37 1.472.392.011.002.024-.006.116-.075a2113.82 2113.82 0 0 0 3.044-2.283c.445-.334.63-.472.636-.47.007 0-.7.535-3.516 2.653l-.276.207z" style="opacity:.974;fill:#0256a1;fill-opacity:1;stroke-width:.00390625" transform="translate(-15.96 -16.823)"/></svg>