<?xml version="1.0" standalone="no"?>
<!DOCTYPE svg PUBLIC "-//W3C//DTD SVG 20010904//EN"
 "http://www.w3.org/TR/2001/REC-SVG-20010904/DTD/svg10.dtd">
<svg version="1.0" xmlns="http://www.w3.org/2000/svg"
 width="744.000000pt" height="744.000000pt" viewBox="0 0 744.000000 744.000000"
 preserveAspectRatio="xMidYMid meet">
<metadata>
Created by potrace 1.14, written by Peter Selinger 2001-2017
</metadata>
<g transform="translate(0.000000,744.000000) scale(0.100000,-0.100000)"
fill="#000000" stroke="none">
<path d="M7245 7389 c-38 -27 -78 -54 -88 -61 -16 -11 -85 -61 -252 -182 -50
-37 -291 -215 -300 -223 -6 -4 -37 -28 -70 -52 -33 -25 -64 -50 -70 -56 -5 -6
-26 -22 -45 -35 -19 -14 -44 -32 -55 -42 -146 -122 -194 -160 -256 -203 -63
-42 -152 -108 -169 -125 -12 -13 -80 -67 -105 -85 -16 -11 -33 -25 -39 -30 -6
-6 -67 -53 -136 -105 -69 -52 -127 -97 -130 -100 -3 -3 -52 -41 -110 -84 -58
-44 -132 -100 -165 -125 -33 -25 -61 -49 -63 -53 -2 -5 -10 -8 -17 -8 -7 0
-15 -4 -17 -8 -3 -8 -193 -156 -227 -177 -8 -5 -20 -15 -26 -21 -5 -5 -32 -28
-60 -49 -27 -21 -57 -45 -65 -52 -8 -7 -40 -32 -70 -55 -30 -24 -57 -45 -60
-48 -3 -3 -50 -41 -105 -83 -55 -43 -109 -86 -120 -95 -11 -10 -60 -49 -110
-87 -49 -38 -96 -75 -103 -82 -7 -7 -16 -13 -20 -13 -4 0 -21 -13 -39 -28 -41
-36 -61 -51 -108 -86 -22 -17 -42 -32 -45 -35 -3 -4 -41 -33 -85 -66 -44 -33
-82 -62 -85 -65 -3 -3 -21 -17 -40 -30 -19 -13 -41 -30 -48 -37 -7 -7 -41 -34
-75 -60 -147 -111 -287 -234 -287 -252 0 -13 29 -23 82 -27 26 -1 66 -8 90
-15 24 -6 50 -13 58 -14 49 -11 333 -136 350 -155 3 -3 15 -11 28 -17 83 -47
92 -54 172 -133 61 -60 157 -189 180 -242 6 -13 14 -30 19 -38 16 -27 81 -187
87 -215 1 -5 11 -44 22 -85 29 -109 40 -183 47 -310 3 -47 5 -85 6 -85 2 0 6
-75 10 -168 3 -81 10 -97 32 -75 17 17 129 188 203 311 32 53 74 121 92 150
18 28 37 61 42 72 12 24 33 58 40 65 11 11 110 182 110 191 0 5 4 9 8 9 4 0
18 19 30 43 12 23 32 59 44 79 73 118 128 212 128 220 0 4 4 8 9 8 5 0 11 8
15 18 3 9 10 24 16 32 11 16 281 465 311 518 10 18 44 73 74 123 30 50 55 94
55 100 0 5 5 9 10 9 6 0 10 7 10 15 0 8 5 15 11 15 5 0 7 5 4 10 -3 6 -2 10 2
10 5 0 19 19 31 43 12 23 33 60 47 82 14 22 28 47 32 55 3 8 9 17 13 20 3 3
24 37 47 75 22 39 79 137 127 219 47 82 86 150 86 152 0 1 17 29 38 61 20 32
43 67 50 78 6 11 18 31 24 45 7 14 15 27 18 30 11 10 70 110 70 120 0 5 6 13
13 17 7 4 18 19 25 33 6 14 16 32 22 40 26 40 130 212 130 215 0 3 16 29 35
60 20 30 35 57 35 60 0 3 4 11 10 18 6 6 54 84 106 172 53 88 103 171 112 185
9 14 15 28 14 33 -1 4 2 7 6 7 5 0 14 12 21 28 7 15 27 50 45 77 18 28 36 57
39 65 4 8 25 44 47 79 22 34 40 67 40 72 0 5 5 9 10 9 6 0 10 5 10 10 0 6 40
79 89 163 49 83 95 166 102 182 8 17 16 32 19 35 6 6 40 78 40 85 0 11 -19 1
-85 -46z"/>
<path d="M3278 6885 c-2 -2 -39 -7 -83 -10 -44 -4 -82 -8 -85 -10 -3 -2 -33
-7 -65 -10 -33 -4 -62 -9 -65 -10 -3 -2 -26 -6 -50 -10 -44 -6 -216 -47 -275
-65 -192 -59 -366 -122 -417 -150 -10 -6 -23 -10 -28 -10 -16 0 -369 -178
-380 -191 -3 -3 -16 -12 -30 -19 -67 -35 -376 -246 -484 -331 -74 -58 -185
-166 -250 -243 -22 -27 -52 -62 -66 -78 -14 -15 -38 -46 -54 -68 -17 -22 -33
-40 -38 -40 -4 0 -8 -6 -8 -14 0 -8 -4 -16 -8 -18 -28 -11 -255 -344 -334
-488 -79 -146 -167 -328 -183 -380 -4 -14 -11 -29 -15 -35 -3 -5 -19 -46 -34
-90 -15 -44 -30 -87 -33 -95 -4 -8 -7 -19 -9 -25 -1 -5 -9 -30 -17 -55 -15
-42 -54 -191 -63 -235 -2 -11 -6 -31 -9 -45 -3 -14 -8 -36 -11 -50 -11 -55
-14 -66 -18 -100 -3 -19 -7 -51 -10 -70 -8 -48 -15 -102 -23 -185 -10 -88 -9
-548 0 -638 9 -89 22 -182 32 -227 3 -14 7 -43 10 -65 2 -22 14 -80 25 -130
11 -49 23 -101 26 -115 16 -76 88 -300 134 -415 53 -133 152 -339 221 -457 44
-75 168 -269 179 -278 3 -3 17 -21 30 -40 123 -180 376 -443 621 -645 108 -89
451 -315 478 -315 5 0 11 -3 13 -7 3 -8 131 -73 268 -136 136 -63 365 -142
550 -191 155 -40 251 -58 440 -83 69 -9 594 -9 675 0 169 19 214 25 345 48 63
11 142 27 175 35 33 9 68 18 79 20 10 2 44 11 75 20 31 10 61 18 66 19 79 18
443 184 590 269 33 20 71 41 85 48 33 16 335 215 352 231 7 7 29 24 48 37 133
93 396 345 525 501 182 222 289 383 418 628 121 233 239 551 291 786 15 66 31
138 36 160 5 22 12 60 15 85 3 25 10 71 16 104 6 32 8 64 5 71 -2 7 -2 16 1
19 18 18 25 522 10 681 -14 149 -17 180 -22 203 -3 13 -8 43 -11 65 -8 65 -74
338 -91 377 -3 8 -7 17 -8 20 -47 182 -244 640 -305 710 -11 13 -20 26 -20 30
0 4 -11 12 -24 18 -22 10 -28 7 -61 -31 -48 -55 -202 -287 -308 -465 -77 -129
-85 -147 -75 -170 5 -15 11 -34 13 -42 2 -8 13 -40 25 -70 12 -30 24 -62 25
-70 2 -8 22 -68 44 -132 39 -112 44 -132 56 -196 3 -15 7 -36 10 -47 24 -112
25 -912 0 -987 -2 -7 -6 -31 -9 -53 -9 -68 -23 -150 -26 -150 -1 0 -3 -9 -4
-20 -8 -60 -77 -267 -132 -390 -10 -22 -18 -42 -19 -45 0 -3 -31 -63 -68 -135
-71 -134 -252 -415 -268 -415 -5 0 -9 -5 -9 -11 0 -6 -6 -16 -12 -23 -7 -7
-33 -37 -58 -67 -99 -118 -280 -290 -412 -391 -119 -90 -146 -108 -177 -124
-17 -8 -31 -20 -31 -25 0 -5 -4 -9 -9 -9 -4 0 -47 -22 -94 -50 -96 -54 -252
-131 -331 -161 -28 -11 -60 -24 -71 -28 -24 -11 -109 -40 -150 -51 -16 -5 -62
-17 -100 -29 -39 -11 -81 -22 -95 -25 -14 -3 -36 -8 -50 -11 -31 -7 -190 -33
-250 -41 -158 -20 -482 -20 -620 1 -19 3 -57 8 -85 11 -27 3 -70 10 -95 16
-25 5 -58 12 -75 15 -118 19 -376 102 -525 170 -104 47 -264 131 -312 164 -14
11 -29 19 -32 19 -4 0 -34 20 -69 45 -34 24 -77 54 -95 67 -18 13 -41 30 -51
38 -10 8 -33 26 -51 40 -150 113 -227 185 -300 280 -19 25 -40 49 -46 55 -23
20 -212 301 -268 398 -81 140 -157 296 -221 452 -23 56 -73 220 -82 270 -2 11
-8 36 -13 55 -5 20 -12 51 -14 70 -3 19 -8 46 -10 59 -3 13 -8 58 -12 100 -3
42 -8 94 -10 116 -10 115 -2 684 11 725 3 8 7 31 9 51 6 46 31 145 59 229 12
36 22 67 22 70 14 86 252 620 276 620 5 0 9 6 9 13 0 7 8 22 18 33 9 11 23 29
30 40 85 132 192 256 358 419 268 263 468 397 869 580 17 7 59 24 95 36 36 12
71 27 78 32 6 5 12 7 12 3 0 -3 24 3 53 14 28 10 106 32 172 49 129 32 157 38
273 55 87 13 194 19 322 19 144 0 317 -10 331 -19 4 -2 29 -6 56 -9 62 -6 261
-44 293 -55 14 -5 39 -12 57 -15 18 -3 45 -10 60 -16 15 -6 29 -10 31 -10 9 4
82 -13 82 -18 0 -4 14 -8 31 -9 18 -1 37 -6 43 -9 6 -4 16 -8 22 -9 6 -1 37
-9 69 -19 l57 -16 41 27 c23 15 46 31 51 36 6 4 43 32 81 61 39 28 72 54 75
57 3 3 57 44 120 91 237 179 244 208 75 292 -117 59 -344 153 -449 186 -112
36 -314 89 -366 97 -19 2 -46 7 -60 11 -14 3 -34 7 -45 8 -11 2 -33 6 -50 9
-16 3 -50 8 -75 12 -25 3 -56 8 -70 10 -14 3 -47 7 -75 10 -27 3 -70 8 -95 11
-55 6 -526 14 -532 8z"/>
<path d="M2918 4073 c-36 -9 -14 -39 42 -58 3 -1 12 -5 20 -8 22 -9 110 -38
129 -42 102 -23 264 -81 362 -130 198 -100 393 -282 498 -468 83 -145 182
-411 196 -527 9 -71 19 -123 29 -154 12 -34 14 -35 28 -19 9 10 19 41 23 68 8
58 8 233 -1 285 -3 19 -6 44 -5 54 0 11 -7 49 -15 85 -8 36 -17 75 -19 86 -11
65 -80 219 -142 318 -30 48 -129 165 -166 196 -16 14 -34 30 -41 35 -68 65
-283 186 -358 202 -5 1 -10 3 -13 4 -3 1 -9 4 -15 5 -5 1 -12 4 -15 5 -3 1 -8
3 -12 4 -5 2 -26 7 -48 14 -41 11 -73 18 -135 28 -19 3 -46 7 -60 10 -37 6
-262 12 -282 7z"/>
<path d="M2676 3750 c-19 -6 -18 -8 8 -31 16 -13 34 -29 40 -34 6 -6 58 -44
116 -85 271 -191 458 -369 627 -595 41 -55 81 -108 89 -118 8 -9 14 -21 14
-25 0 -5 12 -24 26 -43 34 -46 145 -269 173 -349 13 -36 27 -74 32 -85 4 -11
15 -42 24 -70 20 -64 57 -129 70 -124 12 5 13 144 2 214 -13 85 -14 89 -23
130 -4 22 -9 42 -9 45 -13 62 -20 89 -56 205 -24 78 -63 166 -89 205 -9 14
-35 52 -56 85 -21 33 -41 62 -44 65 -3 3 -27 32 -55 65 -67 79 -136 149 -215
215 -36 30 -67 57 -70 60 -3 3 -12 10 -21 15 -9 6 -44 30 -78 53 -122 86 -336
181 -438 196 -17 2 -35 6 -40 9 -4 2 -17 1 -27 -3z"/>
<path d="M2364 3338 c9 -13 59 -63 112 -113 249 -231 350 -340 488 -525 39
-52 73 -97 76 -100 4 -3 17 -23 30 -45 13 -22 27 -42 30 -45 3 -3 19 -27 35
-54 17 -28 42 -70 58 -95 33 -56 156 -301 178 -356 40 -99 60 -151 63 -170 3
-11 12 -40 20 -64 9 -24 18 -53 21 -65 2 -12 6 -30 9 -41 14 -59 25 -113 29
-135 24 -130 47 -166 63 -99 16 67 20 115 17 200 -2 82 -9 154 -13 154 -1 0
-3 16 -5 35 -4 39 -11 81 -19 108 -3 9 -7 28 -10 42 -15 85 -68 262 -109 360
-6 14 -10 28 -9 32 1 3 -5 12 -13 18 -8 7 -15 21 -15 31 0 11 -5 19 -12 19 -6
0 -9 3 -5 6 3 4 -7 26 -23 50 -17 23 -30 45 -30 48 0 7 -100 147 -110 156 -3
3 -13 15 -21 27 -57 83 -280 308 -379 383 -18 14 -38 30 -44 36 -42 41 -260
160 -380 208 -49 20 -49 20 -32 -6z"/>
</g>
</svg>
