<svg xmlns="http://www.w3.org/2000/svg" width="946" height="220"><path d="M96.775 201.499c-37.723-7.586-65.445-37.806-69.31-75.555-2.312-22.576 4.024-44.281 18.207-62.373 7.141-9.11 8.99-10.852 18.239-17.183 14.487-9.919 31.53-15.454 47.515-15.431 11.193.015 25.271 2.74 34.01 6.58 11.178 4.915 11.07 4.432 2.43 10.936l-7.592 5.714-4.25-1.19c-16.563-4.635-27.004-5.185-39.204-2.065-14.318 3.662-26.548 11.166-35.872 22.012-6.253 7.272-9.302 12.734-12.84 23-2.554 7.412-2.936 9.97-2.984 20-.064 13.424 1.57 20.908 6.857 31.413 3.555 7.063 10.448 16.738 13.954 19.587 7.008 5.693 10.588 8.118 16.012 10.845 33.238 16.717 74.129 3.067 91.12-30.416 5.096-10.042 6.638-17.258 6.61-30.93-.023-11.37-.346-13.896-2.583-20.155l-2.557-7.157 2.62-4.344c4.286-7.112 7.576-11.818 8.27-11.831 2.326-.044 9.621 17.793 11.436 27.965 5.412 30.332-5.494 61.118-28.631 80.82-7.82 6.66-19.941 13.68-28.957 16.77-12.426 4.259-30.026 5.496-42.5 2.988zm142-14.623c-13.44-1.111-19.287-3.509-25.324-10.385-6.004-6.838-6.399-14.589-2.116-41.547 1.092-6.875 2.45-15.425 3.02-19 .568-3.575 1.434-8.525 1.924-11 .49-2.475 1.18-6.413 1.532-8.75.752-4.996-.59-4.683 18.714-4.362l6.75.112v3.106c0 1.709-.678 6.996-1.507 11.75-3.513 20.147-7.493 47.103-7.49 50.73.006 4.804 2.904 9.776 7.238 12.42 4.668 2.845 13.942 2.707 19.23-.288 7.892-4.47 9.015-7.916 15.058-46.218 1.996-12.65 3.944-24.8 4.33-27l.702-4 12.7-.28 12.701-.28-.467 2.78c-.257 1.529-1.145 7.505-1.973 13.28-.829 5.775-2.457 16.125-3.62 23-1.162 6.875-2.335 17-2.608 22.5l-.495 10 3.606 3.705c7.781 7.998 24.104 5.668 29.98-4.28 2.019-3.417 3.803-10.452 5.561-21.925.632-4.125 1.556-9.525 2.053-12 .497-2.475 1.843-10.575 2.99-18 1.146-7.425 2.329-14.738 2.627-16.25l.543-2.75h12.42c10.842 0 12.421.208 12.421 1.639 0 .901-.86 6.863-1.912 13.25a3841.078 3841.078 0 0 0-4.1 25.61c-5.251 33.604-9.398 42.174-23.96 49.513-6.487 3.27-9.444 4.009-19.875 4.963-13.006 1.19-26.774-.244-34.158-3.558l-5.835-2.619-6.398 2.56c-9.268 3.708-19.6 4.786-34.262 3.574zm166.682.012c-5.738-1.022-14.71-4.459-17.26-6.612-.869-.733-2.01-1.332-2.535-1.332-1.885 0-10.608-9.64-13.562-14.987-2.525-4.57-3.098-6.91-3.546-14.482-.316-5.357-.045-11.376.667-14.794 3.855-18.498 19.533-34.524 40.533-41.434 7.025-2.312 9.697-2.645 21.521-2.684 14.957-.05 20.988 1.23 31.237 6.625 19.755 10.4 26.258 34.27 15.688 57.582-3.584 7.904-14.777 19.388-23.425 24.034-12.102 6.5-18.888 8.347-32 8.705-6.6.18-14.393-.1-17.318-.62zm25.065-21.52c4.944-.677 14.751-5.905 18.262-9.733 4.82-5.256 8.457-13.866 8.48-20.075.031-8.292-5.619-16.796-13.711-20.638-10.104-4.797-26.57-3.21-36.741 3.541-17.435 11.573-18.19 35.542-1.388 44.056 5.1 2.585 13.705 4.443 17.851 3.855 1.375-.195 4.636-.647 7.247-1.005zm149.926 21.576-3.327-.5 8.226-9.5c4.524-5.225 8.497-9.725 8.827-10 .33-.275 4.214-4.55 8.63-9.5 7.092-7.952 10.98-12.656 15.196-18.391 1.022-1.39.609-2.605-2.5-7.345-2.049-3.123-5.036-7.836-6.639-10.472-1.602-2.636-6.665-10.527-11.25-17.536-4.585-7.01-8.336-12.972-8.336-13.25 0-.279 6.029-.506 13.397-.506h13.396l4.854 7.716c2.67 4.245 5.078 8.209 5.353 8.81 1.376 3.005 6.636 10.504 7.637 10.888.629.241 7.318-5.829 14.865-13.488l13.722-13.926h32.009l-3.787 4.25c-2.083 2.337-10.123 10.958-17.866 19.157-7.744 8.199-14.53 15.429-15.08 16.067-.55.637-2.956 3.215-5.346 5.728-3.98 4.184-4.24 4.77-3.093 6.934.689 1.3 7.512 11.746 15.163 23.213 7.65 11.467 13.657 21.103 13.347 21.413-1.098 1.098-24.594.943-25.98-.171-.747-.6-5.024-6.586-9.505-13.301-4.48-6.716-8.547-12.457-9.035-12.759-.897-.554-18.4 17.663-22.393 23.306l-2.158 3.05-12.5.306c-6.875.169-13.997.082-15.827-.193zm140.603-.055c-14.13-1.256-23.413-6.625-27.458-15.883-1.76-4.029-1.932-17.116-.36-27.312 1.01-6.545 2.247-14.383 4.064-25.75.483-3.025 1.577-10 2.43-15.5.853-5.5 1.762-10.563 2.018-11.25.67-1.791 25.527-1.791 25.537 0 .01 1.766-4.425 29.779-9.162 57.87-1.375 8.15-.57 12.864 2.898 16.986 7.015 8.336 21.021 7.621 29.013-1.48 3.284-3.741 5.802-13.614 9.213-36.126 3.082-20.337 5.02-32.617 5.643-35.75l.547-2.75h23.841l-.018 3.25c-.01 1.787-.705 7.525-1.546 12.75a1793.675 1793.675 0 0 0-3.847 25 1476.43 1476.43 0 0 0-1.674 12c-1.198 8.812-2.926 16.453-4.823 21.325-3.34 8.583-12.532 16.789-22.592 20.17-4.208 1.414-20.703 3.709-24 3.338-.55-.062-4.926-.461-9.724-.888zm62.224-2.88c0-5.295 5.894-43.555 9.177-59.565 1.955-9.538 5.011-16.446 9.218-20.836 8.013-8.364 17.952-12.351 33.105-13.281 18.623-1.143 32.154 2.32 39.743 10.171 7.43 7.687 7.978 15.349 3.143 43.946-.837 4.95-1.944 11.925-2.46 15.5-1.544 10.715-2.781 18.38-3.308 20.5-.274 1.1-.758 3.237-1.077 4.75l-.579 2.75H845.02l.709-4.25c.39-2.338 1.1-6.725 1.58-9.75.478-3.025 1.557-9.775 2.398-15 5.147-31.976 5.882-39.347 4.3-43.119-3.588-8.545-14.996-12.352-23.981-8.003-9.02 4.366-11.26 8.976-14.638 30.122-5.546 34.713-6.426 39.874-7.585 44.5l-1.253 5-11.637.281-11.638.282zm-274 1.552c-9.946-2.198-16.274-6.404-19.949-13.26-2.737-5.109-2.794-20.688-.13-35.893 1.057-6.03 2.487-14.79 3.177-19.464a1229.05 1229.05 0 0 1 2.835-18l1.579-9.5 11.91-.284c6.552-.155 12.31.116 12.798.604.515.515.035 6.079-1.145 13.283-1.117 6.818-2.469 15.322-3.003 18.897-.535 3.575-1.683 11-2.552 16.5-2.522 15.975-2.445 22.392.317 26.27 3.315 4.656 7.535 6.522 14.526 6.423 4.658-.066 6.9-.686 10.477-2.898 6.245-3.86 8.608-9.015 11.138-24.295 1.138-6.875 2.518-14.975 3.067-18 1.079-5.94 3.612-22.55 4.618-30.28.343-2.628 1.1-5.074 1.685-5.435 1.458-.901 22.365-1.08 23.783-.205 1.236.765 1.097 1.899-3.607 29.42-1.41 8.25-3.22 19.173-4.023 24.274-2.804 17.818-5.57 24.566-13.033 31.804-4.997 4.846-11.745 8.238-19.968 10.038-7.44 1.629-27.13 1.63-34.5 0zM111.33 162.919c-2.614-12.87-11.835-28.085-23.323-38.48-3.34-3.023-5.755-5.495-5.368-5.495.387 0 3.046 1.187 5.909 2.637 7.274 3.686 16.84 13.705 20.528 21.497 3.368 7.118 5.56 18.872 4.359 23.365-.724 2.705-.9 2.41-2.105-3.524zm7.636-19.27c-3.63-11.473-12.43-22.707-23.94-30.56-5.452-3.72-5.862-4.445-2-3.537 9.356 2.2 19.95 10.953 24.792 20.484 2.3 4.528 4.759 17.604 3.461 18.406-.366.226-1.407-1.93-2.313-4.793zm9.083-11.027c-.265-2.354-1.722-7.043-3.237-10.418-4.243-9.457-11.585-15.347-22.621-18.15-8.411-2.136-7.638-3.677 1.335-2.662 15.489 1.753 25.544 12.048 26.531 27.167.51 7.807-1.197 11.261-2.008 4.063zm9.17.272c-.032-.248-.253-4.05-.491-8.45-.525-9.668-4.476-18.725-10.247-23.485-3.815-3.147-12.772-7.015-16.242-7.015-1.08 0-1.947-.338-1.928-.75.02-.413 4.155-3.9 9.191-7.75 9.627-7.36 23.883-18.51 27.279-21.333 1.102-.917 7.627-5.919 14.5-11.115 6.872-5.197 12.72-9.719 12.995-10.049.275-.33 2.075-1.681 4-3.003 1.925-1.322 3.725-2.668 4-2.992 1.564-1.839 26.257-20.085 26.65-19.693.259.26-3.434 6.933-8.207 14.829-4.774 7.895-9.466 15.706-10.428 17.356-.961 1.65-4.058 6.745-6.881 11.323-2.824 4.578-5.134 8.428-5.134 8.557 0 .128-3.511 6.058-7.803 13.176a9701.819 9701.819 0 0 0-8.997 14.944c-19.398 32.491-22.088 36.776-22.257 35.45zM903.724 94.44c-11.278-5.746-6.835-22.497 5.967-22.497 4.563 0 10.274 4.828 11.134 9.414 1.766 9.415-8.655 17.387-17.101 13.083zm12.528-4.022c5.991-5.987.96-16.475-7.904-16.475-5.093 0-9.089 4.342-9.041 9.826.077 8.93 10.551 13.04 16.945 6.65zm-12.511-4.725c.166-2.338.354-5.263.418-6.5.099-1.916.673-2.248 3.866-2.235 2.063.008 4.253.346 4.868.75 1.586 1.043 1.454 12.235-.144 12.235-.682 0-1.476-.9-1.764-2-.287-1.1-1.24-2-2.116-2-.927 0-1.594.836-1.594 2 0 1.305-.667 2-1.918 2-1.637 0-1.874-.623-1.616-4.25zm7.285-4.5c.244-.734-.446-1.25-1.668-1.25-1.228 0-2.083.645-2.083 1.573 0 1.838 3.12 1.569 3.75-.323z" style="fill:#07787e;fill-opacity:1"/></svg>